<?xml version="1.0" encoding="UTF-8" standalone="no"?>
<!DOCTYPE svg PUBLIC "-//W3C//DTD SVG 1.1//EN" "http://www.w3.org/Graphics/SVG/1.1/DTD/svg11.dtd">
<svg width="100%" height="100%" viewBox="0 0 1418 1418" version="1.1" xmlns="http://www.w3.org/2000/svg" xmlns:xlink="http://www.w3.org/1999/xlink" xml:space="preserve" xmlns:serif="http://www.serif.com/" style="fill-rule:evenodd;clip-rule:evenodd;stroke-linejoin:round;stroke-miterlimit:1.41421;">
    <g transform="matrix(1,0,0,1,343.198,-6.79365)">
        <g>
            <g id="Head">
                <g transform="matrix(0.733518,0,0,1.29705,141.348,-202.834)">
                    <rect x="601.927" y="668.886" width="48.139" height="22.695" style="fill:rgb(218,162,132);"/>
                </g>
                <g transform="matrix(1,0,0,1,-64.8791,0.3324)">
                    <ellipse cx="647.751" cy="589.699" rx="85.184" ry="88.176" style="fill:rgb(218,162,132);"/>
                </g>
            </g>
            <path id="Hair2_blond" d="M582.872,551.211L497.687,551.211C497.687,516.156 535.857,487.697 582.872,487.697C618.876,487.697 649.694,504.388 662.153,527.949C672.884,543.841 676.271,597.714 676.271,618.197C676.271,643.32 662.577,668.656 647.033,685.683C635.831,629.063 613.617,551.537 582.872,551.537L582.872,551.211Z" style="fill:rgb(146,147,149);"/>
            <g id="Leg-2" serif:id="Leg 2">
                <g id="leg2_t" transform="matrix(0.981674,-0.19057,0.140604,0.724286,-49.1427,380.981)">
                    <path d="M519.515,1005.69C519.515,987.336 534.824,972.437 553.68,972.437C572.537,972.437 587.846,987.336 587.846,1005.69L587.846,1208.69C587.846,1227.05 572.537,1241.94 553.68,1241.94C534.824,1241.94 519.515,1227.05 519.515,1208.69L519.515,1005.69Z" style="fill:rgb(48,78,128);"/>
                </g>
                <g id="leg2_b" transform="matrix(0.734094,-0.679048,0.501007,0.54162,-249.191,974.486)">
                    <path d="M519.515,1005.69C519.515,987.336 534.824,972.437 553.68,972.437C572.537,972.437 587.846,987.336 587.846,1005.69L587.846,1208.69C587.846,1227.05 572.537,1241.94 553.68,1241.94C534.824,1241.94 519.515,1227.05 519.515,1208.69L519.515,1005.69Z" style="fill:rgb(48,78,128);"/>
                </g>
            </g>
            <g id="Torso" transform="matrix(0.727509,0,0,0.891966,142.829,12.7068)">
                <path d="M517.775,829.346C517.775,786.264 566.052,751.288 625.514,751.288C684.977,751.288 733.254,786.265 733.254,829.346L733.254,1064.95C733.254,1108.03 684.977,1143.01 625.514,1143.01C566.051,1143.01 517.775,1108.03 517.775,1064.95L517.775,829.346Z" style="fill:rgb(244,180,25);"/>
            </g>
            <g transform="matrix(0.899411,0.437105,-0.437105,0.899411,381.677,-188.617)">
                <g id="Arm-in-walking-mode1" serif:id="Arm in walking mode1">
                    <g id="Arm-1" serif:id="Arm 1">
                        <g id="arm1_t" transform="matrix(0.551056,-0.298744,0.312233,0.575939,-20.5624,317.151)">
                            <path d="M519.515,1005.69C519.515,987.336 534.824,972.437 553.68,972.437C572.537,972.437 587.846,987.336 587.846,1005.69L587.846,1208.69C587.846,1227.05 572.537,1241.94 553.68,1241.94C534.824,1241.94 519.515,1227.05 519.515,1208.69L519.515,1005.69Z" style="fill:rgb(217,161,22);"/>
                        </g>
                        <g id="arm1_b" transform="matrix(0.264266,0.568397,-0.602209,0.279986,1120.93,251.687)">
                            <path d="M519.515,1005.69C519.515,987.336 534.824,972.437 553.68,972.437C572.537,972.437 587.846,987.336 587.846,1005.69L587.846,1208.69C587.846,1227.05 572.537,1241.94 553.68,1241.94C534.824,1241.94 519.515,1227.05 519.515,1208.69L519.515,1005.69Z" style="fill:rgb(217,161,22);"/>
                        </g>
                    </g>
                </g>
            </g>
            <g id="Leg-1" serif:id="Leg 1">
                <g id="leg1_b" transform="matrix(0.999264,-0.0383671,0.0283076,0.737264,-77.0626,403.138)">
                    <path d="M519.515,1005.69C519.515,987.336 534.824,972.437 553.68,972.437C572.537,972.437 587.846,987.336 587.846,1005.69L587.846,1208.69C587.846,1227.05 572.537,1241.94 553.68,1241.94C534.824,1241.94 519.515,1227.05 519.515,1208.69L519.515,1005.69Z" style="fill:rgb(48,78,128);"/>
                </g>
                <g id="leg1_t" transform="matrix(0.878979,0.47686,-0.351831,0.648518,440.459,84.2383)">
                    <path d="M519.515,1005.69C519.515,987.336 534.824,972.437 553.68,972.437C572.537,972.437 587.846,987.336 587.846,1005.69L587.846,1208.69C587.846,1227.05 572.537,1241.94 553.68,1241.94C534.824,1241.94 519.515,1227.05 519.515,1208.69L519.515,1005.69Z" style="fill:rgb(48,78,128);"/>
                </g>
            </g>
        </g>
    </g>
    <g transform="matrix(1,0,0,1,14.9323,3.00419)">
        <g transform="matrix(1.36227,0,0,1.4197,-53.4539,-527.855)">
            <path d="M180.181,1194.21C170.37,1194.29 155.109,1194.31 148.798,1187.97C145.994,1185.15 148.798,1176.18 148.798,1172.84C148.798,1168.01 164.859,1166.03 167.829,1162.45C172.109,1157.3 175.885,1151.49 183.52,1151.49C196.455,1151.49 206.956,1161.06 206.956,1172.84C206.956,1176.56 205.912,1180.05 204.076,1183.1L294.542,1183.1L294.708,1183.1C300.164,1183.13 305.219,1184.83 309.366,1187.71C319.083,1186.27 344.888,1176.72 344.857,1176.76C341.873,1179.99 322.963,1189.64 314.152,1192.01C317.941,1196.39 320.227,1202.06 320.227,1208.25C320.227,1216.91 315.748,1224.55 308.936,1229.08L314.033,1244.26C315.675,1249.15 312.282,1254.71 306.46,1256.66C300.639,1258.62 294.579,1256.24 292.937,1251.34L292.581,1250.28L290.031,1253.84C287.026,1258.04 280.533,1258.54 275.541,1254.96C270.549,1251.39 268.936,1245.08 271.941,1240.88L277.3,1233.4L226.204,1233.4L229.85,1244.26C231.492,1249.15 228.099,1254.71 222.277,1256.66C216.456,1258.62 210.396,1256.24 208.754,1251.34L205.877,1242.77L203.351,1251.34C201.89,1256.28 195.923,1258.89 190.033,1257.15C184.144,1255.41 180.548,1249.99 182.008,1245.04L187.042,1227.98C182.662,1221.74 177.254,1212.74 177.254,1208.25C177.254,1203.05 178.224,1198.22 180.181,1194.21Z" style="fill:rgb(154,115,6);"/>
            <g transform="matrix(-0.999977,0.00681047,-0.00681047,-0.999977,374.94,2332.89)">
                <path d="M179.172,1158.85C182.142,1158.85 184.553,1170.72 184.553,1174.05C184.553,1177.37 182.142,1176.83 179.172,1176.83C176.202,1176.83 173.791,1177.37 173.791,1174.05C173.791,1170.72 176.202,1158.85 179.172,1158.85Z" style="fill:rgb(101,74,0);"/>
            </g>
        </g>
        <g transform="matrix(1.36227,0,0,1.4197,-53.4539,-527.855)">
            <path d="M205.66,1179.85C205.23,1180.98 204.699,1182.06 204.076,1183.1L208.55,1183.1L178.592,1198.34C179.019,1196.89 179.548,1195.51 180.181,1194.21C179.299,1194.22 178.374,1194.23 177.415,1194.23L205.66,1179.85Z" style="fill:rgb(242,13,13);"/>
        </g>
        <g transform="matrix(1.12035,-0.621015,0.0122891,0.0221704,-50.5321,1275.08)">
            <path d="M738.415,891.607C577.728,3767.05 409.464,4099.74 230.648,891.607L230.648,1147.18C424.658,4563.61 588.682,3841.54 738.415,1147.18L738.415,891.607Z"/>
        </g>
    </g>
</svg>
