<?xml version="1.0" encoding="utf-8"?>

<!DOCTYPE svg PUBLIC "-//W3C//DTD SVG 1.1//EN" "http://www.w3.org/Graphics/SVG/1.1/DTD/svg11.dtd">
<svg version="1.1" id="Layer_1" xmlns="http://www.w3.org/2000/svg" xmlns:xlink="http://www.w3.org/1999/xlink" x="0px" y="0px"
	 viewBox="0 0 1012.859 1649.344" enable-background="new 0 0 1012.859 1649.344" xml:space="preserve">
<g>
	<path fill="#B77141" d="M528.213,778.64c12.201-2.22,24.84,3.889,30.398,15.634l110.656,237.066
		c45.335,95.892,77.952,197.436,96.933,301.786l38.649,212.51c2.771,15.255-7.348,29.873-22.603,32.652
		c-15.255,2.77-29.873-7.348-32.652-22.603l-38.649-212.51c-18.103-99.54-49.198-196.369-92.45-287.83L507.839,818.279
		c-6.634-14.016-0.637-30.751,13.388-37.384C523.498,779.819,525.847,779.071,528.213,778.64"/>
	<path fill="#311730" d="M779.061,1619.171c0.31,1.712-0.792,3.364-2.547,3.674l-9.68,1.764c-1.807,0.327-3.545-0.645-4.216-2.349
		c-1.583-4.164-5.145-12.897-11.925-27.421c7.64,1.815,15.857,0.542,24.005,0.344L779.061,1619.171z"/>
	<path fill="#311730" d="M730.09,1551.41c0.249-0.043,0.456-0.086,0.714-0.077c11.882-1.643,16.417,11.899,27.197,13.921
		c4.896,0.929,9.671,2.134,14.61,2.736c15.909,2.031,46.797,7.916,61.476,12.244c8.699,2.521,16.141-0.129,20.762-2.684
		c4.612-2.547,9.525-4.319,14.696-5.257c1.704-0.31,3.648-0.671,5.902-1.084c2.392-0.292,4.724-0.258,7.072,0.8
		c4.801,2.168,8.587,6.806,9.654,12.7c1.661,9.137-3.863,17.81-12.338,19.35l-25.098,4.569c-13.999,2.538-30.768-4.207-44.38-7.485
		c-8.888-2.117-17.81-4.164-26.81-5.489c-2.925-0.405-5.894-0.482-8.854-0.474c-8.148,0.198-16.365,1.48-24.005-0.344
		c-4.5-1.102-8.836-3.261-12.811-7.417c-3.975-4.199-6.427-10.024-7.666-16.227C728.842,1564.549,728.945,1557.373,730.09,1551.41"
		/>
	<path fill="#B77141" d="M854.846,1577.553c-4.612,2.556-12.072,5.197-20.77,2.685c-14.67-4.328-45.55-10.221-61.476-12.244
		c-4.93-0.602-9.705-1.815-14.592-2.745c-10.781-2.03-15.324-15.556-27.206-13.913c-0.267-12.674,6.298-25.442,20.09-33.512
		c7.941-4.715,16.52-6.901,25.253-7.348c17.26-0.8,35.233,5.36,50.299,13.25c20.073,10.488,37.823,26.681,49.224,47.451
		c-0.086,0.009-0.138,0.026-0.224,0.034c-2.254,0.413-4.207,0.775-5.902,1.076C864.371,1573.226,859.458,1574.998,854.846,1577.553"
		/>
	<path fill="#311730" d="M62.372,1410.939c0.163,0.189,0.31,0.344,0.439,0.568c7.589,9.292-1.609,20.211,2.28,30.475
		c1.755,4.655,3.209,9.361,5.266,13.887c6.556,14.653,17.604,44.078,21.553,58.86c2.375,8.733,8.527,13.723,13.104,16.331
		c4.586,2.615,8.656,5.885,12.149,9.808c1.153,1.282,2.461,2.77,3.992,4.483c1.506,1.876,2.676,3.881,3.003,6.444
		c0.654,5.24-1.342,10.876-5.816,14.859c-6.935,6.169-17.208,5.971-22.947-0.456l-16.959-19.049
		c-9.464-10.626-12.441-28.462-16.726-41.79c-2.822-8.69-5.713-17.38-9.266-25.752c-1.187-2.702-2.659-5.283-4.216-7.787
		c-4.405-6.875-9.783-13.216-12.2-20.684c-1.411-4.422-1.815-9.249-0.336-14.799c1.514-5.575,5.206-10.712,9.86-14.988
		C50.516,1416.722,56.685,1413.065,62.372,1410.939"/>
	<path fill="#B77141" d="M105.014,1531.06c-4.577-2.607-10.721-7.597-13.113-16.33c-3.941-14.79-14.988-44.216-21.544-58.869
		c-2.048-4.517-3.519-9.223-5.274-13.878c-3.88-10.265,5.317-21.192-2.272-30.475c10.678-6.832,25.003-7.864,39.062-0.31
		c8.165,4.337,14.498,10.523,19.428,17.742c9.68,14.326,13.766,32.876,14.876,49.843c1.497,22.603-3.08,46.186-14.876,66.733
		c-0.052-0.06-0.095-0.103-0.146-0.164c-1.531-1.712-2.848-3.201-3.992-4.491C113.669,1536.945,109.591,1533.667,105.014,1531.06"/>
	<path fill="#B77141" d="M938.352,607.812c11.194-0.697,20.933,7.838,21.63,19.084c0.706,11.254-7.881,20.933-19.084,21.631
		l-163.803,10.256l-2.538-40.723L938.352,607.812z"/>
	<path fill="#3C1F39" d="M647.556,607.196l-67.868-201.884c-0.637-1.962-1.067-4.018-1.205-6.169
		c-0.671-10.789,6.014-20.71,16.27-24.16c6.109-2.074,12.579-1.609,18.327,1.247c5.747,2.813,10.041,7.752,12.046,13.818
		l67.877,201.884c5.334,15.926,20.813,26.346,37.599,25.296l40.25-2.512c1.919-0.121,3.571,1.334,3.691,3.261l0.009,0.077
		l2.547,40.723l0.009,0.077c0.121,1.927-1.334,3.588-3.261,3.7l-40.241,2.521C695.213,667.476,659.799,643.678,647.556,607.196"/>
	<path fill="#B77141" d="M986.064,652.633c-0.086-1.592-0.688-3.011-1.618-4.13c-0.258-0.31-0.344-0.731-0.241-1.127
		c0.112-0.387,0.413-0.706,0.791-0.843c3.424-1.213,5.791-4.56,5.593-8.372c-0.138-2.246-1.127-4.225-2.641-5.644
		c-0.319-0.301-0.456-0.74-0.362-1.17c0.086-0.43,0.396-0.774,0.809-0.921c4.018-1.402,6.634-5.3,6.41-9.576
		c-0.207-3.958-2.882-7.718-7.288-8.793c-0.43-0.103-0.783-0.439-0.903-0.878c-0.121-0.43,0-0.895,0.31-1.213
		c1.618-1.617,2.573-3.88,2.443-6.35c-0.275-4.689-4.207-8.208-8.845-7.967c0,0-8.38,0.318-11.727,0.404
		c-0.714,0.017-1.308-0.533-1.351-1.247c-0.577-9.439-12.906-11.349-26.948-7.339c-16.494,4.723-44.552,22.233-42.332,43.347
		c1.858,17.604,19.634,32.609,43.605,31.775c4.259-0.155-3.476,0.301,37.548-2.297C983.294,660.041,986.314,656.608,986.064,652.633
		"/>
	<path fill="#B77141" d="M410.122,767.327c4.784,5.369,7.511,12.553,7.064,20.297l-18.989,336.288
		c-3.459,59.721-29.968,114.52-74.631,154.305l-217.337,193.538c-11.59,10.316-29.323,9.284-39.639-2.289
		c-10.316-11.581-9.284-29.331,2.289-39.647l217.337-193.547c33.47-29.804,53.328-70.863,55.917-115.604l18.989-336.296
		c0.903-15.479,14.179-27.301,29.649-26.406C398.515,758.413,405.338,761.958,410.122,767.327"/>
	<path fill="#311730" d="M30.022,1488.031c-1.299,1.153-3.278,1.076-4.466-0.258l-6.548-7.356c-1.222-1.36-1.291-3.356-0.189-4.81
		c2.736-3.528,8.337-11.108,17.199-24.47c2.426,7.477,7.795,13.818,12.209,20.684L30.022,1488.031z"/>
	<path fill="#581B24" d="M514.466,301.778c5.833,3.476,12.037,6.78,18.499,9.714c23.093,10.497,49.447,15.866,72.859,4.405
		c10.359-5.059,19.514-11.908,27.18-20.03c9.241,1.377,18.757,2.134,27.559-0.809c0.645-0.224,1.239-0.456,1.833-0.688l0.043,0.103
		c1.127,1.222,2.194,2.547,3.106,3.898c6.023,8.785,7.718,20.521,4.07,30.544c-4.164,11.65-15.255,20.469-27.481,21.992
		c-8.664,1.084-17.905-1.962-24.083-7.89c-0.619-0.594-1.54-0.766-2.34-0.43c-12.631,5.378-27.232,6.066-40.275,1.618
		c-17.69-6.066-26.724-19.858-44.784-23.756c-1.807-0.379-3.726-0.68-5.756-0.834c-10.583-0.895-21.433-0.473-31.714-3.33
		c-6.152-1.704-12.218-4.947-16.563-9.568c7.055-5.369,12.665-12.209,16.115-20.409
		C499.624,292.022,506.929,297.218,514.466,301.778"/>
	<path fill="#4E1A25" d="M658.232,247.617c2.934,2.435,6.031,4.681,8.965,7.107c4.982,4.13,9.568,9.284,10.764,15.608
		c1.936,10.179-5.894,19.97-15.565,24.04c-0.594,0.232-1.187,0.465-1.833,0.68c-8.802,2.951-18.327,2.194-27.559,0.809
		c11.985-12.553,20.435-28.032,24.375-44.345C657.69,250.224,657.966,248.916,658.232,247.617"/>
	<path fill="#7F322F" d="M662.401,294.368c9.671-4.07,17.501-13.861,15.556-24.031c-1.196-6.324-5.782-11.486-10.755-15.608
		c-2.934-2.435-6.04-4.68-8.965-7.115c2.943-14.222,3.622-29.245,5.446-43.562c1.359-10.678,3.106-21.149,3.674-31.671
		c7.339,11.882,16.984,22.887,21.708,35.466c1.531,4.104,3.089,8.002,4.569,11.745c5.988,15.565,10.007,28.78,3.347,46.694
		c-5.403,14.532-17.07,27.025-31.439,32.084c-0.912-1.36-1.97-2.676-3.106-3.889L662.401,294.368z"/>
	<path fill="#B77141" d="M497.964,396.492c15.969,0.947,30.484-10.153,33.418-26.302l21.132-116.335
		c3.166-17.449-8.389-34.15-25.838-37.316c-17.587-3.227-34.132,8.406-37.298,25.838l-21.132,116.343
		c-3.166,17.44,8.406,34.141,25.838,37.307C495.383,396.269,496.682,396.415,497.964,396.492"/>
	<path fill="#965C35" d="M479.774,295.262l9.602-52.88c3.175-17.432,19.712-29.073,37.307-25.838
		c17.44,3.166,29.004,19.867,25.838,37.307l-13.887,76.438c-10.376-3.734-21.08-8.845-32.024-15.393
		C497.206,309.278,488.223,302.601,479.774,295.262"/>
	<path fill="#311730" d="M562.047,649.586l-150.958-19.247c7.942-13.586,12.493-27.868,12.338-43.984
		c0.009-0.043,0.017-0.095,0.017-0.095l140.839,17.957C560.541,619.007,559.749,634.494,562.047,649.586"/>
	<path fill="#C52E39" d="M312.323,1200.016c-3.192-1.024-4.474-4.732-2.736-7.597c13.113-21.665,20.856-46.333,22.362-72.325
		l14.222-251.753c-3.975-15.117-9.525-29.83-16.761-43.794c-9.129-17.509-12.579-41.291-2.65-73.186
		c22.465-72.024,57.905-96.477,84.526-120.998l150.966,19.247l14.231,35.956l0.043,0.009c7.959,37.049,14.283,51.624,2.418,121.609
		c0.43,3.123,0.817,6.023,1.248,9.137c23.609,49.25,118.383,231.328,163.648,380.676c0.921,3.046-1.144,6.161-4.311,6.505
		C650.151,1213.283,398.019,1227.333,312.323,1200.016"/>
	<path fill="#B77141" d="M584.921,363.376c9.404,17.002,4.93,54.334-46.909,47.727c-56.408-7.193-82.676-50.583-104.436-68.281
		c74.098-0.043,87.83,3.648,141.975,18.068l-0.009,0.008L584.921,363.376z"/>
	<path fill="#4A2B45" d="M380.102,357.602c16.391-18.43,33.383-18.654,43.837-18.404c3.45,0.077,6.754,1.299,9.439,3.467
		c0.069,0.043,0.129,0.112,0.189,0.155c21.768,17.699,48.028,61.089,104.436,68.281c51.848,6.608,56.322-30.725,46.918-47.726
		l-9.378-2.478v-0.009c0.052-0.06,2.65-2.865,6.049-2.074c8.406,2.228,28.952,4.259,42.056,29.839
		c2.925,5.662,3.433,12.166,1.471,18.284c-1.953,6.074-6.186,11.039-11.856,13.964c-1.532,0.783-2.968,1.695-4.311,2.702
		c-4.199,3.166-6.702,8.079-6.806,13.336c-0.112,5.257,2.194,10.265,6.264,13.603c10.394,8.527,16.313,23.343,14.283,39.277
		c0,0.026-0.017,0.043-0.017,0.06c-0.181,1.454-0.422,2.865-0.731,4.25c-0.069,0.404-0.129,0.817-0.215,1.222
		c-4.259,20.34-16.778,34.863-28.238,33.409l-9.026-1.153l-3.373-0.439l-113.504-14.463c-1.248-0.163-2.478-0.387-3.674-0.688
		c-13.027-3.244-22.878-14.446-26.303-28.617c-0.576-2.375-0.946-4.835-1.144-7.365c-0.086-1.196-0.138-2.409-0.138-3.648
		c0-2.065,0.086-4.156,0.353-6.281c-4.371,34.304,12.889,64.866,38.46,68.135l93.216,11.882c3.347,0.422,6.651,0.318,9.912-0.198
		c1.334-0.206,2.659-0.473,3.966-0.826l-6.642,21.639l-0.009,0.043c-1.42,12.777-2.228,22.758-2.607,28.161
		c-0.189,2.641-1.686,5.076-3.966,6.479l-4.724,2.796l-3.536-0.456L426.89,586.701l-3.45-0.439l-0.155-0.017l-4.93-4.483
		c-2.117-1.927-3.029-4.81-2.53-7.58c1.058-5.885,1.867-17.862-3.295-36.61c-0.318-1.17-0.68-2.349-1.041-3.588
		c-0.224-0.636-0.447-1.334-0.662-2.082c-4.956-16.313-13.698-47.348-16.098-59.179c-4.629-22.586-6.066-42.719-4.311-59.72
		c0.826-8.062-2.306-16.176-8.354-21.579c-4.801-4.268-7.649-10.127-8.028-16.503C373.675,368.503,375.851,362.351,380.102,357.602"
		/>
	<path fill="#311730" d="M475.15,534.235c-25.588-3.261-42.839-33.831-38.46-68.135c-0.284,2.134-0.361,4.225-0.353,6.298
		c0,1.222,0.034,2.444,0.129,3.64c0.198,2.521,0.576,4.982,1.153,7.365c3.416,14.171,13.267,25.382,26.285,28.617
		c1.205,0.301,2.435,0.533,3.691,0.688l113.487,14.472l12.416,1.574c11.443,1.463,23.979-13.069,28.238-33.409
		c0.043-0.232,0.112-0.456,0.155-0.688c-0.138,0.697-0.25,1.402-0.396,2.091c-0.052,0.207-0.103,0.404-0.146,0.594
		c-5.386,24.341-20.968,42.882-39.105,47.761c-4.509,1.213-9.172,1.618-13.878,1.015L475.15,534.235z"/>
	<path fill="#B77141" d="M434.245,144.192c7.391-57.931,65.365-98.266,129.507-90.084c9.542,1.213,18.937,3.527,27.903,6.857
		c27.3,10.153,50.23,29.658,63.386,53.801c6.72,12.329,10.23,25.227,11.882,38.761c2.082,17.027-1.067,33.461-3.235,50.506
		c-1.996,15.633-2.624,32.11-6.315,47.46c-6.453,26.802-25.115,51.478-51.573,64.427c-29.89,14.618-64.702,1.772-91.349-14.162
		c-26.087-15.591-49-39.424-62.792-64.53c-15.332-27.894-21.088-59.617-17.759-90.153
		C434.013,146.111,434.125,145.148,434.245,144.192"/>
	<path fill="#B77141" d="M461.584,161.235c10.067-0.508,19.652,13.293,21.407,30.811c1.764,17.526-4.973,32.162-15.048,32.661
		c-10.067,0.499-19.652-13.293-21.407-30.82C444.781,176.361,451.509,161.734,461.584,161.235"/>
	<path fill="#692829" d="M390.667,192.885c10.153-10.729,13.25-27.309,17.63-40.68c5.309-16.236,9.292-32.953,16.812-48.398
		c11.994-24.642,44.655-64.556,77.307-67.576c2.426-0.215,4.801-0.998,6.892-2.271c16.873-10.256,46.204-10.325,60.959-8.148
		c27.808,4.061,54.782,20.813,73.453,41.351c19.144,21.097,31.465,47.907,36.429,75.853c2.53,14.093,1.738,27.92,4.569,42.013
		c2.366,11.659,8.914,34.554,8.914,34.554c-1.471-3.734-3.037-7.632-4.569-11.736c-4.724-12.588-14.369-23.575-21.699-35.466
		c-4.474-7.253-8.036-14.859-9.017-23.257c-2.065-17.698-5.894-36.025-19.961-48.251c-10.876-9.456-25.829-13.99-40.146-12.166
		c-4.861,0.619-9.714,1.944-14.584,1.54c-1.368-0.103-2.771-0.396-4.07-0.86c-0.869-0.318-1.85-0.043-2.426,0.68
		c-8.38,10.6-27.653,17.406-35.621,27.559c-13.431,17.053-16.029,40.318-26.225,59.376c-7.503,14.007-33.805,27.258-33.1,43.855
		c0.576,13.242,11.856,22.792,13.766,35.586c1.678,11.417,0.37,21.329-3.235,29.813l-0.009,0.051
		c-3.459,8.191-9.06,15.04-16.124,20.409c-11.693,9.103-27.473,14.24-43.966,15.418c-30.303,2.16-58.722-15.659-70.148-44.207
		c-8.174-20.52-2.891-45.051,8.707-63.455C376.298,206.376,384.128,199.811,390.667,192.885"/>
	<path fill="#B77141" d="M159.959,774.223c-2.005,11.039-12.622,18.447-23.721,16.434c-11.082-2.013-18.43-12.682-16.416-23.721
		l29.305-161.48l40.138,7.288L159.959,774.223z"/>
	<path fill="#53354D" d="M385.439,352.067c5.274-3.657,11.641-5.042,17.913-3.897c6.324,1.144,11.805,4.68,15.462,9.946
		c3.648,5.283,4.982,11.65,3.846,17.914c-1.144,6.324-4.629,11.805-9.912,15.461L245.632,507.232
		c-24.737,17.174-41.385,42.968-46.771,72.626l-5.464,30.097c-0.336,1.893-2.16,3.14-4.052,2.805l-0.077-0.017l-40.146-7.288
		l-0.086-0.017c-1.893-0.344-3.149-2.151-2.805-4.044l5.464-30.097c7.675-42.297,31.336-79.002,66.673-103.48L385.439,352.067z"/>
	<path fill="#B77141" d="M104.909,809.785c1.566,0.301,3.08,0.052,4.388-0.576c0.37-0.172,0.8-0.164,1.161,0.034
		c0.353,0.198,0.585,0.559,0.62,0.972c0.37,3.605,3.046,6.711,6.789,7.434c2.228,0.405,4.388-0.086,6.117-1.204
		c0.37-0.241,0.835-0.275,1.23-0.086c0.387,0.198,0.654,0.577,0.697,1.015c0.396,4.242,3.553,7.709,7.761,8.518
		c3.889,0.731,8.182-0.955,10.282-4.964c0.207-0.404,0.611-0.662,1.067-0.68c0.447-0.008,0.878,0.224,1.11,0.602
		c1.179,1.962,3.141,3.424,5.575,3.889c4.612,0.852,8.974-2.117,9.852-6.685c0,0,1.695-8.2,2.418-11.469
		c0.163-0.697,0.843-1.153,1.54-1.024c9.301,1.704,14.119-9.8,13.577-24.392c-0.628-17.148-10.91-48.587-31.947-51.486
		c-17.526-2.418-36.352,11.245-41.282,34.717c-0.878,4.173,0.542-3.45-6.78,37.006C98.379,805.32,100.995,809.08,104.909,809.785"/>
</g>
</svg>
